<svg width="14" height="14" viewBox="0 0 14 14" fill="none" xmlns="http://www.w3.org/2000/svg">
<path d="M5.25 6.41669H4.08334V7.58335H5.25V6.41669Z" fill="black"/>
<path d="M7.58334 6.41669H6.41667V7.58335H7.58334V6.41669Z" fill="black"/>
<path d="M9.91667 6.41669H8.75V7.58335H9.91667V6.41669Z" fill="black"/>
<path d="M5.25 8.75H4.08334V9.91667H5.25V8.75Z" fill="black"/>
<path d="M7.58334 8.75H6.41667V9.91667H7.58334V8.75Z" fill="black"/>
<path d="M9.91667 8.75H8.75V9.91667H9.91667V8.75Z" fill="black"/>
<path d="M12.25 2.91667V2.33333H9.91667V1.75H8.75V2.33333H5.25V1.75H4.08333V2.33333H1.75V2.91667H1.16667V12.25H1.75V12.8333H12.25V12.25H12.8333V2.91667H12.25ZM11.6667 11.0833H11.0833V11.6667H2.91667V11.0833H2.33333V4.08333H2.91667V3.5H4.08333V4.66667H5.25V3.5H8.75V4.66667H9.91667V4.08333V3.5H11.0833V4.08333H11.6667V11.0833Z" fill="black"/>
</svg>
