<svg width="13" height="13" viewBox="0 0 13 13" fill="none" xmlns="http://www.w3.org/2000/svg">
<g clip-path="url(#clip0_28_242)">
<path d="M7.58333 3.25004V3.79171H8.125V4.33337H8.66666V4.87504H9.20833V7.04171H9.75H10.2917V3.79171H9.75V3.25004H9.20833V2.70837H8.66666V2.16671H7.04167V1.08337H5.95833V3.25004H7.58333Z" fill="black"/>
<path d="M7.04167 10.2917V9.20833H3.25V8.66667H3.79167V6.5H2.70833V8.125H2.16667V9.20833H1.625V10.2917H7.04167Z" fill="black"/>
<path d="M7.58333 10.8334H5.41667V11.9167H7.58333V10.8334Z" fill="black"/>
<path d="M11.375 10.8334V9.75002H10.2917V8.66669H9.20833V7.58335H8.125V6.50002H7.04167V5.41669H5.95833V4.33335H4.875V3.25002H3.79167V2.16669H2.70833V1.08335H1.625V0.541687H0.541666V2.16669H1.625V3.25002H2.70833V4.33335H3.79167V5.41669H4.875V6.50002H5.95833V7.58335H7.04167V8.66669H8.125V9.75002H9.20833V10.8334H10.2917V11.9167H11.375V12.4584H12.4583V10.8334H11.375Z" fill="black"/>
</g>
<defs>
<clipPath id="clip0_28_242">
<rect width="13" height="13" fill="white"/>
</clipPath>
</defs>
</svg>
